<?xml version="1.0" encoding="utf-8"?>
<svg xmlns="http://www.w3.org/2000/svg" viewBox="0 0 64 64" width="512" height="512">
  <linearGradient id="mel2gF8aNUOroSngorjeia" x1="47" x2="47" y1="44.5" y2="53.34" gradientUnits="userSpaceOnUse" spreadMethod="reflect">
    <stop offset="0" stop-color="#6dc7ff" />
    <stop offset="1" stop-color="#e6abff" />
  </linearGradient>
  <path fill="url(#mel2gF8aNUOroSngorjeia)" d="M47 45A4 4 0 1 0 47 53A4 4 0 1 0 47 45Z" />
  <linearGradient id="mel2gF8aNUOroSngorjeib" x1="29" x2="29" y1="44.5" y2="53.34" gradientUnits="userSpaceOnUse" spreadMethod="reflect">
    <stop offset="0" stop-color="#6dc7ff" />
    <stop offset="1" stop-color="#e6abff" />
  </linearGradient>
  <path fill="url(#mel2gF8aNUOroSngorjeib)" d="M29 45A4 4 0 1 0 29 53A4 4 0 1 0 29 45Z" />
  <linearGradient id="mel2gF8aNUOroSngorjeic" x1="32" x2="32" y1="10" y2="54.167" gradientUnits="userSpaceOnUse" spreadMethod="reflect">
    <stop offset="0" stop-color="#1a6dff" />
    <stop offset="1" stop-color="#c822ff" />
  </linearGradient>
  <path fill="url(#mel2gF8aNUOroSngorjeic)" d="M55,19h-7.059c-0.499-4.494-4.317-8-8.941-8s-8.442,3.506-8.941,8h-8.257l-1.481-6.662 C20.017,10.961,18.818,10,17.408,10H9c-1.654,0-3,1.346-3,3s1.346,3,3,3h4c1.654,0,3-1.346,3-3v-1h1.408 c0.465,0,0.859,0.316,0.96,0.771l4.959,22.314C23.841,37.391,25.848,39,28.208,39h21.774c2.221,0,4.197-1.491,4.809-3.627 l3.016-10.559C57.935,24.368,58,23.905,58,23.439V22C58,20.346,56.654,19,55,19z M14,13c0,0.552-0.448,1-1,1H9c-0.552,0-1-0.448-1-1 s0.448-1,1-1h5V13z M39,13c3.859,0,7,3.141,7,7s-3.141,7-7,7s-7-3.141-7-7S35.141,13,39,13z M56,23.439 c0,0.279-0.039,0.557-0.116,0.825l-3.017,10.559C52.501,36.105,51.314,37,49.982,37H28.208c-1.416,0-2.62-0.966-2.928-2.349 L22.246,21h7.813c0.499,4.494,4.317,8,8.941,8s8.442-3.506,8.941-8H55c0.552,0,1,0.448,1,1V23.439z" />
  <linearGradient id="mel2gF8aNUOroSngorjeid" x1="39" x2="39" y1="10" y2="54.167" gradientUnits="userSpaceOnUse" spreadMethod="reflect">
    <stop offset="0" stop-color="#1a6dff" />
    <stop offset="1" stop-color="#c822ff" />
  </linearGradient>
  <path fill="url(#mel2gF8aNUOroSngorjeid)" d="M38 24L40 24 40 21 43 21 43 19 40 19 40 16 38 16 38 19 35 19 35 21 38 21z" />
  <linearGradient id="mel2gF8aNUOroSngorjeie" x1="39" x2="39" y1="10" y2="54.167" gradientUnits="userSpaceOnUse" spreadMethod="reflect">
    <stop offset="0" stop-color="#1a6dff" />
    <stop offset="1" stop-color="#c822ff" />
  </linearGradient>
  <path fill="url(#mel2gF8aNUOroSngorjeie)" d="M30 33H48V35H30z" />
  <linearGradient id="mel2gF8aNUOroSngorjeif" x1="38" x2="38" y1="10" y2="54.167" gradientUnits="userSpaceOnUse" spreadMethod="reflect">
    <stop offset="0" stop-color="#1a6dff" />
    <stop offset="1" stop-color="#c822ff" />
  </linearGradient>
  <path fill="url(#mel2gF8aNUOroSngorjeif)" d="M47,44c-2.414,0-4.434,1.721-4.899,4h-8.202c-0.465-2.279-2.484-4-4.899-4 c-2.757,0-5,2.243-5,5s2.243,5,5,5c2.414,0,4.434-1.721,4.899-4h8.202c0.465,2.279,2.484,4,4.899,4c2.757,0,5-2.243,5-5 S49.757,44,47,44z M29,52c-1.654,0-3-1.346-3-3s1.346-3,3-3s3,1.346,3,3S30.654,52,29,52z M47,52c-1.654,0-3-1.346-3-3s1.346-3,3-3 s3,1.346,3,3S48.654,52,47,52z" />
</svg>